<?xml version="1.0" encoding="UTF-8" standalone="no"?>
<svg width="18px" height="42px" viewBox="0 0 18 42" version="1.1" xmlns="http://www.w3.org/2000/svg" xmlns:xlink="http://www.w3.org/1999/xlink" xmlns:sketch="http://www.bohemiancoding.com/sketch/ns">
    <!-- Generator: Sketch 3.4.4 (17249) - http://www.bohemiancoding.com/sketch -->
    <title>pip right</title>
    <desc>Created with Sketch.</desc>
    <defs></defs>
    <g id="Page-1" stroke="none" stroke-width="1" fill="none" fill-rule="evenodd" sketch:type="MSPage">
        <g id="king-hearts" sketch:type="MSLayerGroup" transform="translate(-147.000000, -194.000000)" fill="#DF0000">
            <g id="pip-right" transform="translate(147.000000, 194.000000)">
                <g id="pip-right-t" transform="translate(9.500000, 31.000000) scale(-1, -1) translate(-9.500000, -31.000000) translate(0.000000, 15.000000)" font-size="26.1573836" font-family="Arial" sketch:type="MSTextLayer" font-weight="normal">
                    <text id="tspan3790-6">
                        <tspan x="0.52855" y="24.57899" fill="#000000">K</tspan>
                    </text>
                </g>
                <g transform="translate(9.082060, 9.923970) scale(-1, -1) translate(-9.082060, -9.923970) translate(0.184598, 0.555895)" id="hl-8-17-1" sketch:type="MSShapeGroup">
                    <path d="M12.9858464,0 C9.37903755,0 8.8974624,3.61919956 8.8974624,3.61919956 C8.8974624,3.61919956 8.41588725,0 4.80907843,0 C2.28442347,0 0,1.62275873 0,4.6840374 C0,8.72896392 7.31721825,12.7965967 8.8974624,18.7361496 C10.4011447,12.8015751 17.7949248,8.72896392 17.7949248,4.6840374 C17.7949248,1.62275873 15.5105013,0 12.9858464,0 L12.9858464,0 Z"></path>
                </g>
            </g>
        </g>
    </g>
</svg>